<svg width="23" height="23" viewBox="0 0 23 23" fill="none" xmlns="http://www.w3.org/2000/svg">
<path d="M13.3782 19.6564L13.4136 13.3985L19.7069 13.3985C20.0604 13.3985 20.3433 13.2571 20.5554 13.045C20.7675 12.8328 20.909 12.55 20.8736 12.2318L20.8736 10.7469C20.8736 10.1105 20.3433 9.58014 19.7069 9.58014L13.4136 9.58016L13.4136 3.28688C13.4136 2.65049 12.8833 2.12016 12.2469 2.12016L10.762 2.12015C10.4791 2.12018 10.1609 2.22624 9.9488 2.43837C9.73667 2.65051 9.63061 2.9687 9.59526 3.2869L9.59524 9.58016L3.30199 9.58013C2.66559 9.58013 2.13526 10.1105 2.13526 10.7469L2.13526 12.2318C2.13526 12.8682 2.66559 13.3985 3.30199 13.3985L9.59523 13.3985L9.59521 19.6917C9.59521 19.9746 9.70127 20.2928 9.9134 20.5049C10.1255 20.717 10.4084 20.8585 10.7266 20.8231H12.2115C12.4944 20.8231 12.8126 20.717 13.0601 20.4695C13.2722 20.2574 13.4136 19.9746 13.3782 19.6564ZM12.2469 19.8686H10.762C10.6206 19.8686 10.5852 19.8332 10.5852 19.6918L10.5852 12.9035C10.6205 12.7975 10.5498 12.656 10.4438 12.55C10.3377 12.444 10.2316 12.4086 10.0902 12.4086L3.30201 12.4086C3.1606 12.4086 3.12524 12.3732 3.12522 12.2318L3.12522 10.7469C3.12524 10.6762 3.19594 10.6055 3.30201 10.5701L10.0902 10.5701C10.2316 10.5701 10.3377 10.5347 10.4438 10.4287C10.5498 10.3226 10.5852 10.2165 10.5852 10.0751L10.5852 3.2869C10.5852 3.21622 10.6206 3.18086 10.6559 3.14549C10.6913 3.11013 10.7266 3.07479 10.762 3.11013L12.2469 3.11013C12.3883 3.11013 12.4237 3.14549 12.4237 3.28692L12.4237 10.0751C12.4237 10.358 12.6358 10.5701 12.9187 10.5701L19.7069 10.5701C19.8483 10.5701 19.8836 10.6055 19.8837 10.7469L19.8837 12.2318C19.8837 12.3025 19.8483 12.3379 19.8483 12.3379C19.813 12.3732 19.7776 12.4086 19.7422 12.3732L12.954 12.3732C12.6712 12.3732 12.459 12.5853 12.459 12.8682L12.4591 19.6564C12.4591 19.7271 12.4237 19.7625 12.4237 19.7625C12.353 19.8332 12.3176 19.8686 12.2469 19.8686Z" fill="#444444"/>
</svg>
