<svg width="20" height="20" viewBox="0 0 20 20" fill="none" xmlns="http://www.w3.org/2000/svg">
<path d="M14.38 19.9994C14.7862 19.9994 15.1846 19.8407 15.4848 19.541L19.3114 15.7225C19.7554 15.2794 20 14.6899 20 14.0627C20 13.4354 19.7554 12.8458 19.3114 12.4026L15.4848 8.58414C15.0351 8.13522 14.3651 8.00262 13.7779 8.24615C13.1915 8.48938 12.8127 9.0564 12.8127 9.69055V13.2812C6.60934 13.2812 1.5625 8.23441 1.5625 2.0311V0.78125C1.5625 0.349731 1.21277 0 0.78125 0C0.349731 0 0 0.349731 0 0.78125V2.0311C0 5.45349 1.3327 8.67111 3.75275 11.0912C6.17279 13.511 9.39026 14.8439 12.8127 14.8439C13.6743 14.8439 14.3753 14.1429 14.3753 13.2814V9.69055C14.3753 9.6904 14.3753 9.69025 14.3753 9.69009C14.3765 9.68948 14.3781 9.68887 14.3794 9.68842C14.3799 9.68903 14.3805 9.68948 14.3811 9.69009L18.2077 13.5088C18.3559 13.6566 18.4375 13.8533 18.4375 14.0627C18.4375 14.272 18.3559 14.4687 18.2077 14.6165L14.3811 18.4351L14.3794 18.4367C14.3781 18.4363 14.3765 18.4358 14.3753 18.4352C14.3753 18.4351 14.3753 18.4349 14.3753 18.4346V17.5783C14.3753 17.1468 14.0254 16.797 13.5939 16.797C13.1625 16.797 12.8127 17.1468 12.8127 17.5783V18.4346C12.8127 19.0688 13.1915 19.6358 13.7779 19.879C13.9731 19.96 14.1776 19.9994 14.38 19.9994Z" fill="#444444"/>
</svg>
